<mxfile host="drawio-plugin" modified="2023-11-02T22:04:48.340Z" agent="5.0 (Windows NT 6.2; Win64; x64) AppleWebKit/537.36 (KHTML, like Gecko) Chrome/104.0.5112.102 Safari/537.36" etag="XsAOrQNhRu9Ox8-2tr-R" version="20.5.3" type="embed"><diagram id="R2lEEEUBdFMjLlhIrx00" name="Page-1"><mxGraphModel dx="1183" dy="388" grid="1" gridSize="10" guides="1" tooltips="1" connect="1" arrows="1" fold="1" page="1" pageScale="1" pageWidth="850" pageHeight="1100" math="0" shadow="0" extFonts="Permanent Marker^https://fonts.googleapis.com/css?family=Permanent+Marker"><root><mxCell id="0"/><mxCell id="1" parent="0"/><mxCell id="rwmY2pymt90oBdt7kpku-1" value="UTENTE" style="rounded=0;whiteSpace=wrap;html=1;" parent="1" vertex="1"><mxGeometry x="40" y="230" width="90" height="50" as="geometry"/></mxCell><mxCell id="rwmY2pymt90oBdt7kpku-3" value="R1" style="rhombus;whiteSpace=wrap;html=1;" parent="1" vertex="1"><mxGeometry x="200" y="230" width="80" height="50" as="geometry"/></mxCell><mxCell id="rwmY2pymt90oBdt7kpku-7" value="" style="endArrow=none;html=1;rounded=0;exitX=1;exitY=0.5;exitDx=0;exitDy=0;" parent="1" source="rwmY2pymt90oBdt7kpku-1" target="rwmY2pymt90oBdt7kpku-3" edge="1"><mxGeometry width="50" height="50" relative="1" as="geometry"><mxPoint x="130" y="255" as="sourcePoint"/><mxPoint x="330" y="255" as="targetPoint"/></mxGeometry></mxCell><mxCell id="rwmY2pymt90oBdt7kpku-8" value="ORDINE" style="rounded=0;whiteSpace=wrap;html=1;" parent="1" vertex="1"><mxGeometry x="350" y="230" width="90" height="50" as="geometry"/></mxCell><mxCell id="rwmY2pymt90oBdt7kpku-9" value="" style="endArrow=none;html=1;rounded=0;exitX=1;exitY=0.5;exitDx=0;exitDy=0;" parent="1" edge="1"><mxGeometry width="50" height="50" relative="1" as="geometry"><mxPoint x="280" y="254.5" as="sourcePoint"/><mxPoint x="350" y="254.5" as="targetPoint"/></mxGeometry></mxCell><mxCell id="rwmY2pymt90oBdt7kpku-12" value="R2" style="rhombus;whiteSpace=wrap;html=1;" parent="1" vertex="1"><mxGeometry x="510" y="230" width="80" height="50" as="geometry"/></mxCell><mxCell id="rwmY2pymt90oBdt7kpku-13" value="" style="endArrow=none;html=1;rounded=0;exitX=1;exitY=0.5;exitDx=0;exitDy=0;" parent="1" target="rwmY2pymt90oBdt7kpku-12" edge="1"><mxGeometry width="50" height="50" relative="1" as="geometry"><mxPoint x="439.9999999999999" y="255" as="sourcePoint"/><mxPoint x="640" y="255" as="targetPoint"/></mxGeometry></mxCell><mxCell id="rwmY2pymt90oBdt7kpku-14" value="" style="endArrow=none;html=1;rounded=0;exitX=1;exitY=0.5;exitDx=0;exitDy=0;" parent="1" edge="1"><mxGeometry width="50" height="50" relative="1" as="geometry"><mxPoint x="590" y="254.5" as="sourcePoint"/><mxPoint x="660" y="254.5" as="targetPoint"/></mxGeometry></mxCell><mxCell id="rwmY2pymt90oBdt7kpku-15" value="" style="shape=partialRectangle;whiteSpace=wrap;html=1;bottom=0;right=0;fillColor=none;" parent="1" vertex="1"><mxGeometry x="320" y="220" width="40" height="50" as="geometry"/></mxCell><mxCell id="rwmY2pymt90oBdt7kpku-16" value="" style="shape=partialRectangle;whiteSpace=wrap;html=1;bottom=0;right=0;fillColor=none;rotation=90;" parent="1" vertex="1"><mxGeometry x="380.5" y="192.5" width="63" height="118" as="geometry"/></mxCell><mxCell id="rwmY2pymt90oBdt7kpku-18" value="" style="ellipse;whiteSpace=wrap;html=1;aspect=fixed;" parent="1" vertex="1"><mxGeometry x="315" y="270" width="10" height="10" as="geometry"/></mxCell><mxCell id="rwmY2pymt90oBdt7kpku-19" value="" style="endArrow=none;html=1;rounded=0;exitX=0.25;exitY=0;exitDx=0;exitDy=0;" parent="1" source="rwmY2pymt90oBdt7kpku-8" edge="1"><mxGeometry width="50" height="50" relative="1" as="geometry"><mxPoint x="370" y="240" as="sourcePoint"/><mxPoint x="373" y="210" as="targetPoint"/></mxGeometry></mxCell><mxCell id="rwmY2pymt90oBdt7kpku-20" value="" style="ellipse;whiteSpace=wrap;html=1;aspect=fixed;" parent="1" vertex="1"><mxGeometry x="367.5" y="207" width="10" height="10" as="geometry"/></mxCell><mxCell id="V3lsYfVuXBT3E3ssEsES-1" value="" style="endArrow=none;html=1;rounded=0;startArrow=none;" parent="1" source="V3lsYfVuXBT3E3ssEsES-2" edge="1"><mxGeometry width="50" height="50" relative="1" as="geometry"><mxPoint x="45" y="210" as="sourcePoint"/><mxPoint x="45" y="230" as="targetPoint"/></mxGeometry></mxCell><mxCell id="V3lsYfVuXBT3E3ssEsES-2" value="" style="ellipse;whiteSpace=wrap;html=1;aspect=fixed;" parent="1" vertex="1"><mxGeometry x="40" y="210" width="10" height="10" as="geometry"/></mxCell><mxCell id="V3lsYfVuXBT3E3ssEsES-5" value="" style="endArrow=none;html=1;rounded=0;" parent="1" target="V3lsYfVuXBT3E3ssEsES-2" edge="1"><mxGeometry width="50" height="50" relative="1" as="geometry"><mxPoint x="45" y="210" as="sourcePoint"/><mxPoint x="45" y="230" as="targetPoint"/></mxGeometry></mxCell><mxCell id="V3lsYfVuXBT3E3ssEsES-6" value="ruolo" style="text;html=1;strokeColor=none;fillColor=none;align=center;verticalAlign=middle;whiteSpace=wrap;rounded=0;" parent="1" vertex="1"><mxGeometry x="30" y="197" width="30" height="10" as="geometry"/></mxCell><mxCell id="V3lsYfVuXBT3E3ssEsES-7" value="" style="endArrow=none;html=1;rounded=0;startArrow=none;" parent="1" source="V3lsYfVuXBT3E3ssEsES-8" edge="1"><mxGeometry width="50" height="50" relative="1" as="geometry"><mxPoint x="76" y="209.5" as="sourcePoint"/><mxPoint x="76" y="229.5" as="targetPoint"/></mxGeometry></mxCell><mxCell id="V3lsYfVuXBT3E3ssEsES-8" value="" style="ellipse;whiteSpace=wrap;html=1;aspect=fixed;" parent="1" vertex="1"><mxGeometry x="71" y="209.5" width="10" height="10" as="geometry"/></mxCell><mxCell id="V3lsYfVuXBT3E3ssEsES-9" value="" style="endArrow=none;html=1;rounded=0;" parent="1" target="V3lsYfVuXBT3E3ssEsES-8" edge="1"><mxGeometry width="50" height="50" relative="1" as="geometry"><mxPoint x="76" y="209.5" as="sourcePoint"/><mxPoint x="76" y="229.5" as="targetPoint"/></mxGeometry></mxCell><mxCell id="V3lsYfVuXBT3E3ssEsES-10" value="nome" style="text;html=1;strokeColor=none;fillColor=none;align=center;verticalAlign=middle;whiteSpace=wrap;rounded=0;" parent="1" vertex="1"><mxGeometry x="61" y="196.5" width="30" height="10" as="geometry"/></mxCell><mxCell id="V3lsYfVuXBT3E3ssEsES-22" value="" style="endArrow=none;html=1;rounded=0;startArrow=none;entryX=0.834;entryY=0.001;entryDx=0;entryDy=0;entryPerimeter=0;" parent="1" source="V3lsYfVuXBT3E3ssEsES-23" target="rwmY2pymt90oBdt7kpku-1" edge="1"><mxGeometry width="50" height="50" relative="1" as="geometry"><mxPoint x="115" y="211" as="sourcePoint"/><mxPoint x="115" y="231" as="targetPoint"/></mxGeometry></mxCell><mxCell id="V3lsYfVuXBT3E3ssEsES-23" value="" style="ellipse;whiteSpace=wrap;html=1;aspect=fixed;" parent="1" vertex="1"><mxGeometry x="110" y="211" width="10" height="10" as="geometry"/></mxCell><mxCell id="V3lsYfVuXBT3E3ssEsES-24" value="" style="endArrow=none;html=1;rounded=0;" parent="1" target="V3lsYfVuXBT3E3ssEsES-23" edge="1"><mxGeometry width="50" height="50" relative="1" as="geometry"><mxPoint x="115" y="211" as="sourcePoint"/><mxPoint x="115" y="231" as="targetPoint"/></mxGeometry></mxCell><mxCell id="V3lsYfVuXBT3E3ssEsES-25" value="cognome" style="text;html=1;strokeColor=none;fillColor=none;align=center;verticalAlign=middle;whiteSpace=wrap;rounded=0;" parent="1" vertex="1"><mxGeometry x="100" y="198" width="60" height="10" as="geometry"/></mxCell><mxCell id="V3lsYfVuXBT3E3ssEsES-28" value="" style="endArrow=none;html=1;rounded=0;" parent="1" edge="1"><mxGeometry width="50" height="50" relative="1" as="geometry"><mxPoint x="51" y="289.95" as="sourcePoint"/><mxPoint x="51" y="289.94999999999993" as="targetPoint"/></mxGeometry></mxCell><mxCell id="V3lsYfVuXBT3E3ssEsES-32" value="" style="endArrow=none;html=1;rounded=0;" parent="1" edge="1"><mxGeometry width="50" height="50" relative="1" as="geometry"><mxPoint x="82" y="289.45000000000005" as="sourcePoint"/><mxPoint x="82" y="289.45" as="targetPoint"/></mxGeometry></mxCell><mxCell id="V3lsYfVuXBT3E3ssEsES-34" value="" style="endArrow=none;html=1;rounded=0;startArrow=none;entryX=0.884;entryY=1.008;entryDx=0;entryDy=0;entryPerimeter=0;" parent="1" source="V3lsYfVuXBT3E3ssEsES-35" target="rwmY2pymt90oBdt7kpku-1" edge="1"><mxGeometry width="50" height="50" relative="1" as="geometry"><mxPoint x="121" y="290.95" as="sourcePoint"/><mxPoint x="121.06000000000006" y="310" as="targetPoint"/></mxGeometry></mxCell><mxCell id="V3lsYfVuXBT3E3ssEsES-35" value="" style="ellipse;whiteSpace=wrap;html=1;aspect=fixed;" parent="1" vertex="1"><mxGeometry x="115" y="290.95" width="10" height="10" as="geometry"/></mxCell><mxCell id="V3lsYfVuXBT3E3ssEsES-36" value="" style="endArrow=none;html=1;rounded=0;" parent="1" target="V3lsYfVuXBT3E3ssEsES-35" edge="1"><mxGeometry width="50" height="50" relative="1" as="geometry"><mxPoint x="121" y="290.94999999999993" as="sourcePoint"/><mxPoint x="121" y="310.95" as="targetPoint"/></mxGeometry></mxCell><mxCell id="V3lsYfVuXBT3E3ssEsES-37" value="dataNascita" style="text;html=1;strokeColor=none;fillColor=none;align=center;verticalAlign=middle;whiteSpace=wrap;rounded=0;" parent="1" vertex="1"><mxGeometry x="113" y="304" width="70" height="10" as="geometry"/></mxCell><mxCell id="V3lsYfVuXBT3E3ssEsES-38" value="" style="endArrow=none;html=1;rounded=0;startArrow=none;entryX=0;entryY=0.22;entryDx=0;entryDy=0;entryPerimeter=0;" parent="1" source="V3lsYfVuXBT3E3ssEsES-39" edge="1"><mxGeometry width="50" height="50" relative="1" as="geometry"><mxPoint x="25" y="230" as="sourcePoint"/><mxPoint x="40" y="250" as="targetPoint"/></mxGeometry></mxCell><mxCell id="V3lsYfVuXBT3E3ssEsES-39" value="" style="ellipse;whiteSpace=wrap;html=1;aspect=fixed;fillColor=#000000;" parent="1" vertex="1"><mxGeometry x="10" y="240" width="10" height="10" as="geometry"/></mxCell><mxCell id="V3lsYfVuXBT3E3ssEsES-41" value="CF" style="text;html=1;strokeColor=none;fillColor=none;align=center;verticalAlign=middle;whiteSpace=wrap;rounded=0;" parent="1" vertex="1"><mxGeometry x="-10" y="225" width="30" height="10" as="geometry"/></mxCell><mxCell id="V3lsYfVuXBT3E3ssEsES-42" value="recapito" style="rhombus;whiteSpace=wrap;html=1;" parent="1" vertex="1"><mxGeometry x="45" y="329" width="80" height="50" as="geometry"/></mxCell><mxCell id="V3lsYfVuXBT3E3ssEsES-44" value="TELEFONO" style="rounded=0;whiteSpace=wrap;html=1;" parent="1" vertex="1"><mxGeometry x="40" y="430" width="90" height="50" as="geometry"/></mxCell><mxCell id="V3lsYfVuXBT3E3ssEsES-45" value="" style="endArrow=none;html=1;rounded=0;exitX=0.5;exitY=0;exitDx=0;exitDy=0;entryX=0.5;entryY=1;entryDx=0;entryDy=0;" parent="1" source="V3lsYfVuXBT3E3ssEsES-42" target="rwmY2pymt90oBdt7kpku-1" edge="1"><mxGeometry width="50" height="50" relative="1" as="geometry"><mxPoint x="140" y="265" as="sourcePoint"/><mxPoint x="210" y="265" as="targetPoint"/></mxGeometry></mxCell><mxCell id="V3lsYfVuXBT3E3ssEsES-46" value="" style="endArrow=none;html=1;rounded=0;exitX=0.5;exitY=0;exitDx=0;exitDy=0;entryX=0.5;entryY=1;entryDx=0;entryDy=0;" parent="1" edge="1"><mxGeometry width="50" height="50" relative="1" as="geometry"><mxPoint x="84.58" y="429" as="sourcePoint"/><mxPoint x="84.58" y="380" as="targetPoint"/></mxGeometry></mxCell><mxCell id="V3lsYfVuXBT3E3ssEsES-47" value="dataOrdine" style="text;html=1;strokeColor=none;fillColor=none;align=center;verticalAlign=middle;whiteSpace=wrap;rounded=0;" parent="1" vertex="1"><mxGeometry x="342.5" y="192.5" width="60" height="10" as="geometry"/></mxCell><mxCell id="V3lsYfVuXBT3E3ssEsES-48" value="" style="shape=partialRectangle;whiteSpace=wrap;html=1;bottom=0;right=0;fillColor=none;" parent="1" vertex="1"><mxGeometry x="40" y="320" width="56" height="30" as="geometry"/></mxCell><mxCell id="V3lsYfVuXBT3E3ssEsES-49" value="" style="shape=partialRectangle;whiteSpace=wrap;html=1;bottom=0;right=0;fillColor=none;rotation=-90;" parent="1" vertex="1"><mxGeometry x="31.75" y="330.25" width="73" height="56.5" as="geometry"/></mxCell><mxCell id="V3lsYfVuXBT3E3ssEsES-50" value="" style="ellipse;whiteSpace=wrap;html=1;aspect=fixed;" parent="1" vertex="1"><mxGeometry x="94.75" y="316.75" width="10" height="10" as="geometry"/></mxCell><mxCell id="V3lsYfVuXBT3E3ssEsES-51" value="" style="endArrow=none;html=1;rounded=0;startArrow=none;entryX=0.834;entryY=0.001;entryDx=0;entryDy=0;entryPerimeter=0;" parent="1" source="V3lsYfVuXBT3E3ssEsES-52" edge="1"><mxGeometry width="50" height="50" relative="1" as="geometry"><mxPoint x="125" y="410.95" as="sourcePoint"/><mxPoint x="125.05999999999995" y="430" as="targetPoint"/></mxGeometry></mxCell><mxCell id="V3lsYfVuXBT3E3ssEsES-52" value="" style="ellipse;whiteSpace=wrap;html=1;aspect=fixed;" parent="1" vertex="1"><mxGeometry x="120" y="410.95" width="10" height="10" as="geometry"/></mxCell><mxCell id="V3lsYfVuXBT3E3ssEsES-53" value="" style="endArrow=none;html=1;rounded=0;" parent="1" target="V3lsYfVuXBT3E3ssEsES-52" edge="1"><mxGeometry width="50" height="50" relative="1" as="geometry"><mxPoint x="125" y="410.95" as="sourcePoint"/><mxPoint x="125" y="430.95" as="targetPoint"/></mxGeometry></mxCell><mxCell id="V3lsYfVuXBT3E3ssEsES-54" value="numero" style="text;html=1;strokeColor=none;fillColor=none;align=center;verticalAlign=middle;whiteSpace=wrap;rounded=0;" parent="1" vertex="1"><mxGeometry x="100" y="400.95" width="70" height="10" as="geometry"/></mxCell><mxCell id="V3lsYfVuXBT3E3ssEsES-83" value="ordinazioni&lt;br&gt;passate" style="rhombus;whiteSpace=wrap;html=1;" parent="1" vertex="1"><mxGeometry x="340" y="120" width="100" height="50" as="geometry"/></mxCell><mxCell id="V3lsYfVuXBT3E3ssEsES-93" value="" style="endArrow=none;html=1;rounded=0;exitX=1;exitY=0.25;exitDx=0;exitDy=0;entryX=0;entryY=0.5;entryDx=0;entryDy=0;edgeStyle=orthogonalEdgeStyle;curved=1;" parent="1" source="rwmY2pymt90oBdt7kpku-1" target="V3lsYfVuXBT3E3ssEsES-83" edge="1"><mxGeometry width="50" height="50" relative="1" as="geometry"><mxPoint x="140" y="265" as="sourcePoint"/><mxPoint x="210" y="265" as="targetPoint"/></mxGeometry></mxCell><mxCell id="V3lsYfVuXBT3E3ssEsES-94" value="" style="endArrow=none;html=1;rounded=0;exitX=0;exitY=0.25;exitDx=0;exitDy=0;entryX=1;entryY=0.5;entryDx=0;entryDy=0;edgeStyle=orthogonalEdgeStyle;curved=1;" parent="1" target="V3lsYfVuXBT3E3ssEsES-83" edge="1"><mxGeometry width="50" height="50" relative="1" as="geometry"><mxPoint x="660" y="242.5" as="sourcePoint"/><mxPoint x="350" y="155" as="targetPoint"/></mxGeometry></mxCell><mxCell id="V3lsYfVuXBT3E3ssEsES-122" value="" style="endArrow=none;html=1;rounded=0;startArrow=none;entryX=0.884;entryY=1.008;entryDx=0;entryDy=0;entryPerimeter=0;" parent="1" source="V3lsYfVuXBT3E3ssEsES-123" edge="1"><mxGeometry width="50" height="50" relative="1" as="geometry"><mxPoint x="368" y="290.95" as="sourcePoint"/><mxPoint x="366.55999999999995" y="280.4" as="targetPoint"/></mxGeometry></mxCell><mxCell id="V3lsYfVuXBT3E3ssEsES-123" value="" style="ellipse;whiteSpace=wrap;html=1;aspect=fixed;dashed=1;" parent="1" vertex="1"><mxGeometry x="362" y="290.95" width="10" height="10" as="geometry"/></mxCell><mxCell id="V3lsYfVuXBT3E3ssEsES-124" value="" style="endArrow=none;html=1;rounded=0;" parent="1" target="V3lsYfVuXBT3E3ssEsES-123" edge="1"><mxGeometry width="50" height="50" relative="1" as="geometry"><mxPoint x="368" y="290.94999999999993" as="sourcePoint"/><mxPoint x="368" y="310.95" as="targetPoint"/></mxGeometry></mxCell><mxCell id="V3lsYfVuXBT3E3ssEsES-125" value="totaleOrdine" style="text;html=1;strokeColor=none;fillColor=none;align=center;verticalAlign=middle;whiteSpace=wrap;rounded=0;" parent="1" vertex="1"><mxGeometry x="337.5" y="304" width="70" height="10" as="geometry"/></mxCell><mxCell id="V3lsYfVuXBT3E3ssEsES-126" value="" style="endArrow=none;html=1;rounded=0;startArrow=none;entryX=0.884;entryY=1.008;entryDx=0;entryDy=0;entryPerimeter=0;" parent="1" source="V3lsYfVuXBT3E3ssEsES-127" edge="1"><mxGeometry width="50" height="50" relative="1" as="geometry"><mxPoint x="438" y="289.7" as="sourcePoint"/><mxPoint x="436.55999999999995" y="279.15" as="targetPoint"/></mxGeometry></mxCell><mxCell id="V3lsYfVuXBT3E3ssEsES-127" value="" style="ellipse;whiteSpace=wrap;html=1;aspect=fixed;dashed=1;" parent="1" vertex="1"><mxGeometry x="432" y="289.7" width="10" height="10" as="geometry"/></mxCell><mxCell id="V3lsYfVuXBT3E3ssEsES-128" value="" style="endArrow=none;html=1;rounded=0;" parent="1" target="V3lsYfVuXBT3E3ssEsES-127" edge="1"><mxGeometry width="50" height="50" relative="1" as="geometry"><mxPoint x="438" y="289.69999999999993" as="sourcePoint"/><mxPoint x="438" y="309.7" as="targetPoint"/></mxGeometry></mxCell><mxCell id="V3lsYfVuXBT3E3ssEsES-129" value="quantita" style="text;html=1;strokeColor=none;fillColor=none;align=center;verticalAlign=middle;whiteSpace=wrap;rounded=0;" parent="1" vertex="1"><mxGeometry x="425" y="300.95" width="47.5" height="10" as="geometry"/></mxCell><mxCell id="V3lsYfVuXBT3E3ssEsES-130" value="STRUMENTO" style="rounded=0;whiteSpace=wrap;html=1;" parent="1" vertex="1"><mxGeometry x="661" y="234" width="90" height="50" as="geometry"/></mxCell><mxCell id="V3lsYfVuXBT3E3ssEsES-131" value="" style="endArrow=none;html=1;rounded=0;" parent="1" edge="1"><mxGeometry width="50" height="50" relative="1" as="geometry"><mxPoint x="666" y="214.5" as="sourcePoint"/><mxPoint x="666" y="214.5" as="targetPoint"/></mxGeometry></mxCell><mxCell id="V3lsYfVuXBT3E3ssEsES-132" value="" style="endArrow=none;html=1;rounded=0;startArrow=none;entryX=0.085;entryY=-0.016;entryDx=0;entryDy=0;entryPerimeter=0;" parent="1" source="V3lsYfVuXBT3E3ssEsES-133" target="V3lsYfVuXBT3E3ssEsES-130" edge="1"><mxGeometry width="50" height="50" relative="1" as="geometry"><mxPoint x="697" y="214" as="sourcePoint"/><mxPoint x="697" y="234" as="targetPoint"/></mxGeometry></mxCell><mxCell id="V3lsYfVuXBT3E3ssEsES-133" value="" style="ellipse;whiteSpace=wrap;html=1;aspect=fixed;" parent="1" vertex="1"><mxGeometry x="664" y="214" width="10" height="10" as="geometry"/></mxCell><mxCell id="V3lsYfVuXBT3E3ssEsES-134" value="nomeStrumento" style="text;html=1;strokeColor=none;fillColor=none;align=center;verticalAlign=middle;whiteSpace=wrap;rounded=0;" parent="1" vertex="1"><mxGeometry x="618.5" y="201" width="92.5" height="10" as="geometry"/></mxCell><mxCell id="V3lsYfVuXBT3E3ssEsES-135" value="" style="endArrow=none;html=1;rounded=0;" parent="1" edge="1"><mxGeometry width="50" height="50" relative="1" as="geometry"><mxPoint x="729.25" y="215.5" as="sourcePoint"/><mxPoint x="729.25" y="215.5" as="targetPoint"/></mxGeometry></mxCell><mxCell id="V3lsYfVuXBT3E3ssEsES-136" value="" style="endArrow=none;html=1;rounded=0;" parent="1" edge="1"><mxGeometry width="50" height="50" relative="1" as="geometry"><mxPoint x="670.25" y="293.95000000000005" as="sourcePoint"/><mxPoint x="670.25" y="293.94999999999993" as="targetPoint"/></mxGeometry></mxCell><mxCell id="V3lsYfVuXBT3E3ssEsES-137" value="" style="endArrow=none;html=1;rounded=0;" parent="1" edge="1"><mxGeometry width="50" height="50" relative="1" as="geometry"><mxPoint x="701.25" y="293.45000000000005" as="sourcePoint"/><mxPoint x="701.25" y="293.45000000000005" as="targetPoint"/></mxGeometry></mxCell><mxCell id="V3lsYfVuXBT3E3ssEsES-138" value="appartenere" style="rhombus;whiteSpace=wrap;html=1;" parent="1" vertex="1"><mxGeometry x="664.25" y="333" width="80" height="50" as="geometry"/></mxCell><mxCell id="V3lsYfVuXBT3E3ssEsES-139" value="CATEGORIA" style="rounded=0;whiteSpace=wrap;html=1;" parent="1" vertex="1"><mxGeometry x="659.25" y="434" width="90" height="50" as="geometry"/></mxCell><mxCell id="V3lsYfVuXBT3E3ssEsES-140" value="" style="endArrow=none;html=1;rounded=0;exitX=0.5;exitY=0;exitDx=0;exitDy=0;entryX=0.5;entryY=1;entryDx=0;entryDy=0;" parent="1" source="V3lsYfVuXBT3E3ssEsES-138" edge="1"><mxGeometry width="50" height="50" relative="1" as="geometry"><mxPoint x="759.25" y="269" as="sourcePoint"/><mxPoint x="704.25" y="284" as="targetPoint"/></mxGeometry></mxCell><mxCell id="V3lsYfVuXBT3E3ssEsES-141" value="" style="endArrow=none;html=1;rounded=0;exitX=0.5;exitY=0;exitDx=0;exitDy=0;entryX=0.5;entryY=1;entryDx=0;entryDy=0;" parent="1" edge="1"><mxGeometry width="50" height="50" relative="1" as="geometry"><mxPoint x="703.8299999999999" y="433.0000000000001" as="sourcePoint"/><mxPoint x="703.8299999999999" y="384" as="targetPoint"/></mxGeometry></mxCell><mxCell id="V3lsYfVuXBT3E3ssEsES-142" value="" style="endArrow=none;html=1;rounded=0;startArrow=none;" parent="1" source="V3lsYfVuXBT3E3ssEsES-143" edge="1"><mxGeometry width="50" height="50" relative="1" as="geometry"><mxPoint x="764.25" y="424.95" as="sourcePoint"/><mxPoint x="751" y="444" as="targetPoint"/></mxGeometry></mxCell><mxCell id="V3lsYfVuXBT3E3ssEsES-143" value="" style="ellipse;whiteSpace=wrap;html=1;aspect=fixed;" parent="1" vertex="1"><mxGeometry x="759.25" y="424.95" width="10" height="10" as="geometry"/></mxCell><mxCell id="V3lsYfVuXBT3E3ssEsES-144" value="" style="endArrow=none;html=1;rounded=0;" parent="1" target="V3lsYfVuXBT3E3ssEsES-143" edge="1"><mxGeometry width="50" height="50" relative="1" as="geometry"><mxPoint x="764.25" y="424.94999999999993" as="sourcePoint"/><mxPoint x="764.25" y="444.95" as="targetPoint"/></mxGeometry></mxCell><mxCell id="V3lsYfVuXBT3E3ssEsES-145" value="nomeCategoria" style="text;html=1;strokeColor=none;fillColor=none;align=center;verticalAlign=middle;whiteSpace=wrap;rounded=0;" parent="1" vertex="1"><mxGeometry x="731" y="414.95" width="78.25" height="10" as="geometry"/></mxCell><mxCell id="V3lsYfVuXBT3E3ssEsES-146" value="" style="endArrow=none;html=1;rounded=0;" parent="1" edge="1"><mxGeometry width="50" height="50" relative="1" as="geometry"><mxPoint x="731.75" y="215.5" as="sourcePoint"/><mxPoint x="731.75" y="215.5" as="targetPoint"/></mxGeometry></mxCell><mxCell id="V3lsYfVuXBT3E3ssEsES-147" value="" style="endArrow=none;html=1;rounded=0;startArrow=none;entryX=0.085;entryY=-0.016;entryDx=0;entryDy=0;entryPerimeter=0;" parent="1" source="V3lsYfVuXBT3E3ssEsES-148" edge="1"><mxGeometry width="50" height="50" relative="1" as="geometry"><mxPoint x="762.75" y="215" as="sourcePoint"/><mxPoint x="734.4000000000001" y="234.20000000000005" as="targetPoint"/></mxGeometry></mxCell><mxCell id="V3lsYfVuXBT3E3ssEsES-148" value="" style="ellipse;whiteSpace=wrap;html=1;aspect=fixed;" parent="1" vertex="1"><mxGeometry x="729.75" y="215" width="10" height="10" as="geometry"/></mxCell><mxCell id="V3lsYfVuXBT3E3ssEsES-149" value="prezzo" style="text;html=1;strokeColor=none;fillColor=none;align=center;verticalAlign=middle;whiteSpace=wrap;rounded=0;" parent="1" vertex="1"><mxGeometry x="718.5" y="202" width="32.5" height="10" as="geometry"/></mxCell><mxCell id="V3lsYfVuXBT3E3ssEsES-150" value="" style="endArrow=none;html=1;rounded=0;" parent="1" edge="1"><mxGeometry width="50" height="50" relative="1" as="geometry"><mxPoint x="770" y="228.5" as="sourcePoint"/><mxPoint x="770" y="228.5" as="targetPoint"/></mxGeometry></mxCell><mxCell id="V3lsYfVuXBT3E3ssEsES-151" value="" style="endArrow=none;html=1;rounded=0;" parent="1" edge="1"><mxGeometry width="50" height="50" relative="1" as="geometry"><mxPoint x="772.5" y="228.5" as="sourcePoint"/><mxPoint x="772.5" y="228.5" as="targetPoint"/></mxGeometry></mxCell><mxCell id="V3lsYfVuXBT3E3ssEsES-152" value="" style="endArrow=none;html=1;rounded=0;startArrow=none;entryX=1.017;entryY=0.15;entryDx=0;entryDy=0;entryPerimeter=0;" parent="1" source="V3lsYfVuXBT3E3ssEsES-153" target="V3lsYfVuXBT3E3ssEsES-130" edge="1"><mxGeometry width="50" height="50" relative="1" as="geometry"><mxPoint x="803.5" y="228" as="sourcePoint"/><mxPoint x="775.1500000000001" y="247.20000000000005" as="targetPoint"/></mxGeometry></mxCell><mxCell id="V3lsYfVuXBT3E3ssEsES-153" value="" style="ellipse;whiteSpace=wrap;html=1;aspect=fixed;fillColor=#000000;" parent="1" vertex="1"><mxGeometry x="770.5" y="228" width="10" height="10" as="geometry"/></mxCell><mxCell id="V3lsYfVuXBT3E3ssEsES-154" value="IDStrumento" style="text;html=1;strokeColor=none;fillColor=none;align=center;verticalAlign=middle;whiteSpace=wrap;rounded=0;" parent="1" vertex="1"><mxGeometry x="769.25" y="215" width="61.75" height="10" as="geometry"/></mxCell><mxCell id="V3lsYfVuXBT3E3ssEsES-155" value="" style="endArrow=none;html=1;rounded=0;" parent="1" edge="1"><mxGeometry width="50" height="50" relative="1" as="geometry"><mxPoint x="766.7200000000003" y="471" as="sourcePoint"/><mxPoint x="766.7200000000003" y="471" as="targetPoint"/></mxGeometry></mxCell><mxCell id="V3lsYfVuXBT3E3ssEsES-156" value="" style="endArrow=none;html=1;rounded=0;" parent="1" edge="1"><mxGeometry width="50" height="50" relative="1" as="geometry"><mxPoint x="769.2200000000003" y="471" as="sourcePoint"/><mxPoint x="769.2200000000003" y="471" as="targetPoint"/></mxGeometry></mxCell><mxCell id="V3lsYfVuXBT3E3ssEsES-157" value="" style="endArrow=none;html=1;rounded=0;startArrow=none;entryX=1.017;entryY=0.15;entryDx=0;entryDy=0;entryPerimeter=0;" parent="1" source="V3lsYfVuXBT3E3ssEsES-158" edge="1"><mxGeometry width="50" height="50" relative="1" as="geometry"><mxPoint x="800.22" y="470.5" as="sourcePoint"/><mxPoint x="749.25" y="484" as="targetPoint"/></mxGeometry></mxCell><mxCell id="V3lsYfVuXBT3E3ssEsES-158" value="" style="ellipse;whiteSpace=wrap;html=1;aspect=fixed;fillColor=#000000;" parent="1" vertex="1"><mxGeometry x="769.25" y="479" width="10" height="10" as="geometry"/></mxCell><mxCell id="V3lsYfVuXBT3E3ssEsES-159" value="IDCategoria" style="text;html=1;strokeColor=none;fillColor=none;align=center;verticalAlign=middle;whiteSpace=wrap;rounded=0;" parent="1" vertex="1"><mxGeometry x="759.25" y="469" width="61.75" height="10" as="geometry"/></mxCell><mxCell id="V3lsYfVuXBT3E3ssEsES-160" value="" style="endArrow=none;html=1;rounded=0;startArrow=none;entryX=0;entryY=0.25;entryDx=0;entryDy=0;" parent="1" source="V3lsYfVuXBT3E3ssEsES-161" target="V3lsYfVuXBT3E3ssEsES-139" edge="1"><mxGeometry width="50" height="50" relative="1" as="geometry"><mxPoint x="634.25" y="425.43" as="sourcePoint"/><mxPoint x="621" y="444.48" as="targetPoint"/></mxGeometry></mxCell><mxCell id="V3lsYfVuXBT3E3ssEsES-161" value="" style="ellipse;whiteSpace=wrap;html=1;aspect=fixed;" parent="1" vertex="1"><mxGeometry x="629.25" y="425.43" width="10" height="10" as="geometry"/></mxCell><mxCell id="V3lsYfVuXBT3E3ssEsES-162" value="" style="endArrow=none;html=1;rounded=0;" parent="1" target="V3lsYfVuXBT3E3ssEsES-161" edge="1"><mxGeometry width="50" height="50" relative="1" as="geometry"><mxPoint x="634.25" y="425.4300000000002" as="sourcePoint"/><mxPoint x="634.25" y="445.43" as="targetPoint"/></mxGeometry></mxCell><mxCell id="V3lsYfVuXBT3E3ssEsES-163" value="descrizione" style="text;html=1;strokeColor=none;fillColor=none;align=center;verticalAlign=middle;whiteSpace=wrap;rounded=0;" parent="1" vertex="1"><mxGeometry x="601" y="415.43" width="78.25" height="10" as="geometry"/></mxCell><mxCell id="V3lsYfVuXBT3E3ssEsES-165" value="" style="endArrow=none;html=1;rounded=0;" parent="1" edge="1"><mxGeometry width="50" height="50" relative="1" as="geometry"><mxPoint x="802.75" y="269" as="sourcePoint"/><mxPoint x="802.75" y="269" as="targetPoint"/></mxGeometry></mxCell><mxCell id="V3lsYfVuXBT3E3ssEsES-166" value="" style="endArrow=none;html=1;rounded=0;" parent="1" edge="1"><mxGeometry width="50" height="50" relative="1" as="geometry"><mxPoint x="805.25" y="269" as="sourcePoint"/><mxPoint x="805.25" y="269" as="targetPoint"/></mxGeometry></mxCell><mxCell id="V3lsYfVuXBT3E3ssEsES-167" value="" style="endArrow=none;html=1;rounded=0;startArrow=none;" parent="1" source="V3lsYfVuXBT3E3ssEsES-168" edge="1"><mxGeometry width="50" height="50" relative="1" as="geometry"><mxPoint x="836.25" y="268.5" as="sourcePoint"/><mxPoint x="752" y="260.5" as="targetPoint"/></mxGeometry></mxCell><mxCell id="V3lsYfVuXBT3E3ssEsES-168" value="" style="ellipse;whiteSpace=wrap;html=1;aspect=fixed;" parent="1" vertex="1"><mxGeometry x="770.5" y="255.5" width="10" height="10" as="geometry"/></mxCell><mxCell id="V3lsYfVuXBT3E3ssEsES-169" value="offerta" style="text;html=1;strokeColor=none;fillColor=none;align=center;verticalAlign=middle;whiteSpace=wrap;rounded=0;" parent="1" vertex="1"><mxGeometry x="783.88" y="255.5" width="32.5" height="10" as="geometry"/></mxCell><mxCell id="V3lsYfVuXBT3E3ssEsES-170" value="" style="endArrow=none;html=1;rounded=0;" parent="1" edge="1"><mxGeometry width="50" height="50" relative="1" as="geometry"><mxPoint x="1011.5" y="277.5" as="sourcePoint"/><mxPoint x="1011.5" y="277.5" as="targetPoint"/></mxGeometry></mxCell><mxCell id="V3lsYfVuXBT3E3ssEsES-171" value="" style="endArrow=none;html=1;rounded=0;" parent="1" edge="1"><mxGeometry width="50" height="50" relative="1" as="geometry"><mxPoint x="1014" y="266.5" as="sourcePoint"/><mxPoint x="1014" y="266.5" as="targetPoint"/></mxGeometry></mxCell><mxCell id="V3lsYfVuXBT3E3ssEsES-173" value="" style="endArrow=none;html=1;rounded=0;startArrow=none;entryX=0.976;entryY=0.435;entryDx=0;entryDy=0;entryPerimeter=0;" parent="1" source="V3lsYfVuXBT3E3ssEsES-174" target="rwmY2pymt90oBdt7kpku-16" edge="1"><mxGeometry width="50" height="50" relative="1" as="geometry"><mxPoint x="420.5" y="321.05" as="sourcePoint"/><mxPoint x="419.05999999999995" y="310.5" as="targetPoint"/></mxGeometry></mxCell><mxCell id="V3lsYfVuXBT3E3ssEsES-174" value="" style="ellipse;whiteSpace=wrap;html=1;aspect=fixed;dashed=1;" parent="1" vertex="1"><mxGeometry x="414.5" y="321.05" width="10" height="10" as="geometry"/></mxCell><mxCell id="V3lsYfVuXBT3E3ssEsES-175" value="" style="endArrow=none;html=1;rounded=0;" parent="1" target="V3lsYfVuXBT3E3ssEsES-174" edge="1"><mxGeometry width="50" height="50" relative="1" as="geometry"><mxPoint x="420.5" y="321.04999999999995" as="sourcePoint"/><mxPoint x="420.5" y="341.05" as="targetPoint"/></mxGeometry></mxCell><mxCell id="V3lsYfVuXBT3E3ssEsES-176" value="sconto" style="text;html=1;strokeColor=none;fillColor=none;align=center;verticalAlign=middle;whiteSpace=wrap;rounded=0;" parent="1" vertex="1"><mxGeometry x="407.5" y="332.3" width="47.5" height="10" as="geometry"/></mxCell><mxCell id="V3lsYfVuXBT3E3ssEsES-187" value="&lt;div&gt;&lt;span&gt;Utente&lt;/span&gt;&lt;/div&gt;" style="shape=umlActor;verticalLabelPosition=bottom;verticalAlign=top;html=1;outlineConnect=0;fillColor=none;align=left;" parent="1" vertex="1"><mxGeometry x="590" y="520" width="30" height="60" as="geometry"/></mxCell><mxCell id="V3lsYfVuXBT3E3ssEsES-188" value="Visitatore" style="shape=umlActor;verticalLabelPosition=bottom;verticalAlign=top;html=1;outlineConnect=0;fillColor=none;" parent="1" vertex="1"><mxGeometry x="664.25" y="520" width="30" height="60" as="geometry"/></mxCell><mxCell id="V3lsYfVuXBT3E3ssEsES-190" value="Amministratore" style="shape=umlActor;verticalLabelPosition=bottom;verticalAlign=top;html=1;outlineConnect=0;fillColor=none;" parent="1" vertex="1"><mxGeometry x="530" y="520" width="30" height="60" as="geometry"/></mxCell><mxCell id="V3lsYfVuXBT3E3ssEsES-191" value="(0,N)" style="text;html=1;strokeColor=none;fillColor=none;align=center;verticalAlign=middle;whiteSpace=wrap;rounded=0;" parent="1" vertex="1"><mxGeometry x="53.25" y="284" width="30" height="12.75" as="geometry"/></mxCell><mxCell id="V3lsYfVuXBT3E3ssEsES-192" value="(1,1)" style="text;html=1;strokeColor=none;fillColor=none;align=center;verticalAlign=middle;whiteSpace=wrap;rounded=0;" parent="1" vertex="1"><mxGeometry x="53.25" y="409.58" width="30" height="12.75" as="geometry"/></mxCell><mxCell id="V3lsYfVuXBT3E3ssEsES-194" value="" style="endArrow=none;html=1;rounded=0;startArrow=none;" parent="1" source="V3lsYfVuXBT3E3ssEsES-195" edge="1"><mxGeometry width="50" height="50" relative="1" as="geometry"><mxPoint x="-45" y="271.97" as="sourcePoint"/><mxPoint x="40" y="271" as="targetPoint"/></mxGeometry></mxCell><mxCell id="V3lsYfVuXBT3E3ssEsES-195" value="" style="ellipse;whiteSpace=wrap;html=1;aspect=fixed;" parent="1" vertex="1"><mxGeometry y="265.5" width="10" height="10" as="geometry"/></mxCell><mxCell id="V3lsYfVuXBT3E3ssEsES-197" value="viaResidenza" style="text;html=1;strokeColor=none;fillColor=none;align=center;verticalAlign=middle;whiteSpace=wrap;rounded=0;" parent="1" vertex="1"><mxGeometry x="-75" y="264.5" width="70" height="10" as="geometry"/></mxCell><mxCell id="V3lsYfVuXBT3E3ssEsES-202" value="(0,N)" style="text;html=1;strokeColor=none;fillColor=none;align=center;verticalAlign=middle;whiteSpace=wrap;rounded=0;" parent="1" vertex="1"><mxGeometry x="133" y="257.25" width="30" height="12.75" as="geometry"/></mxCell><mxCell id="V3lsYfVuXBT3E3ssEsES-203" value="(0,N)" style="text;html=1;strokeColor=none;fillColor=none;align=center;verticalAlign=middle;whiteSpace=wrap;rounded=0;" parent="1" vertex="1"><mxGeometry x="625.13" y="257.25" width="30" height="12.75" as="geometry"/></mxCell><mxCell id="V3lsYfVuXBT3E3ssEsES-204" value="(0,N)" style="text;html=1;strokeColor=none;fillColor=none;align=center;verticalAlign=middle;whiteSpace=wrap;rounded=0;" parent="1" vertex="1"><mxGeometry x="153" y="222.25" width="30" height="12.75" as="geometry"/></mxCell><mxCell id="V3lsYfVuXBT3E3ssEsES-205" value="(0,N)" style="text;html=1;strokeColor=none;fillColor=none;align=center;verticalAlign=middle;whiteSpace=wrap;rounded=0;" parent="1" vertex="1"><mxGeometry x="625.13" y="225" width="30" height="12.75" as="geometry"/></mxCell><mxCell id="V3lsYfVuXBT3E3ssEsES-206" value="(0,N)" style="text;html=1;strokeColor=none;fillColor=none;align=center;verticalAlign=middle;whiteSpace=wrap;rounded=0;" parent="1" vertex="1"><mxGeometry x="674" y="417.25" width="30" height="12.75" as="geometry"/></mxCell><mxCell id="V3lsYfVuXBT3E3ssEsES-207" value="(1,1)" style="text;html=1;strokeColor=none;fillColor=none;align=center;verticalAlign=middle;whiteSpace=wrap;rounded=0;" parent="1" vertex="1"><mxGeometry x="674" y="289.7" width="30" height="12.75" as="geometry"/></mxCell><mxCell id="V3lsYfVuXBT3E3ssEsES-208" value="UTENTE(&lt;u&gt;&lt;font color=&quot;#ff0000&quot;&gt;CF&lt;/font&gt;&lt;/u&gt;,nome,cognome,ruolo,dataNascita,viaResidenza)" style="text;html=1;strokeColor=none;fillColor=none;align=center;verticalAlign=middle;whiteSpace=wrap;rounded=0;" parent="1" vertex="1"><mxGeometry x="30" y="535" width="340" height="30" as="geometry"/></mxCell><mxCell id="V3lsYfVuXBT3E3ssEsES-209" value="TELEFONO(&lt;u&gt;&lt;i&gt;&lt;font color=&quot;#ff0000&quot;&gt;UTENTE&lt;/font&gt;&lt;/i&gt;&lt;/u&gt;,numero) VIR UTENTE(CF)" style="text;html=1;strokeColor=none;fillColor=none;align=left;verticalAlign=middle;whiteSpace=wrap;rounded=0;" parent="1" vertex="1"><mxGeometry x="31.75" y="570" width="311.5" height="30" as="geometry"/></mxCell><mxCell id="V3lsYfVuXBT3E3ssEsES-210" value="CATEGORIA(&lt;u&gt;&lt;font color=&quot;#ff0000&quot;&gt;IDCategoria&lt;/font&gt;&lt;/u&gt;,nomeCateogoria,descrizione)" style="text;html=1;strokeColor=none;fillColor=none;align=center;verticalAlign=middle;whiteSpace=wrap;rounded=0;" parent="1" vertex="1"><mxGeometry x="30" y="810" width="299" height="30" as="geometry"/></mxCell><mxCell id="V3lsYfVuXBT3E3ssEsES-211" value="STRUMENTO(&lt;u&gt;&lt;font color=&quot;#ff0000&quot;&gt;IDSTRUMENTO&lt;/font&gt;&lt;/u&gt;,nomeStrumento,prezzo,offerta,&lt;i&gt;&lt;font color=&quot;#0000ff&quot;&gt;Categoria&lt;/font&gt;&lt;/i&gt;)&lt;br&gt;&lt;div style=&quot;text-align: left&quot;&gt;&lt;span&gt;&lt;span style=&quot;white-space: pre&quot;&gt;&#9;&lt;/span&gt;VIR CATEGORIA(IDCateogoria)&lt;/span&gt;&lt;/div&gt;" style="text;html=1;strokeColor=none;fillColor=none;align=center;verticalAlign=middle;whiteSpace=wrap;rounded=0;" parent="1" vertex="1"><mxGeometry x="30" y="770" width="392.5" height="30" as="geometry"/></mxCell><mxCell id="V3lsYfVuXBT3E3ssEsES-212" value="&lt;span style=&quot;color: rgb(0 , 0 , 0) ; font-family: &amp;#34;helvetica&amp;#34; ; font-size: 12px ; font-style: normal ; font-weight: 400 ; letter-spacing: normal ; text-align: center ; text-indent: 0px ; text-transform: none ; word-spacing: 0px ; background-color: rgb(248 , 249 , 250) ; display: inline ; float: none&quot;&gt;ORDINE(&lt;/span&gt;&lt;u style=&quot;color: rgb(0 , 0 , 0) ; font-family: &amp;#34;helvetica&amp;#34; ; font-size: 12px ; font-weight: 400 ; letter-spacing: normal ; text-align: center ; text-indent: 0px ; text-transform: none ; word-spacing: 0px ; background-color: rgb(248 , 249 , 250)&quot;&gt;&lt;font color=&quot;#ff0000&quot;&gt;&lt;i&gt;UTENTE,STRUMENTO,&lt;/i&gt;dataOrdine&lt;/font&gt;&lt;/u&gt;&lt;span style=&quot;color: rgb(0 , 0 , 0) ; font-family: &amp;#34;helvetica&amp;#34; ; font-size: 12px ; font-style: normal ; font-weight: 400 ; letter-spacing: normal ; text-align: center ; text-indent: 0px ; text-transform: none ; word-spacing: 0px ; background-color: rgb(248 , 249 , 250) ; display: inline ; float: none&quot;&gt;,totaleOrdine,sconto,quantita) &lt;span style=&quot;white-space: pre&quot;&gt;&#9;&lt;/span&gt;VIR UTENTE(CF)&lt;br&gt;&lt;span style=&quot;white-space: pre&quot;&gt;&#9;&lt;/span&gt;VIR STRUMENTO(IDStrumento)&lt;br&gt;&lt;/span&gt;" style="text;whiteSpace=wrap;html=1;fontColor=#FF0000;" parent="1" vertex="1"><mxGeometry x="31.75" y="610" width="420" height="60.95" as="geometry"/></mxCell><mxCell id="V3lsYfVuXBT3E3ssEsES-213" value="&lt;span style=&quot;color: rgb(0 , 0 , 0) ; font-family: &amp;quot;helvetica&amp;quot; ; font-size: 12px ; font-style: normal ; font-weight: 400 ; letter-spacing: normal ; text-align: center ; text-indent: 0px ; text-transform: none ; word-spacing: 0px ; background-color: rgb(248 , 249 , 250) ; display: inline ; float: none&quot;&gt;ORDINE_PASSATO(&lt;/span&gt;&lt;u style=&quot;color: rgb(0 , 0 , 0) ; font-family: &amp;quot;helvetica&amp;quot; ; font-size: 12px ; font-weight: 400 ; letter-spacing: normal ; text-align: center ; text-indent: 0px ; text-transform: none ; word-spacing: 0px ; background-color: rgb(248 , 249 , 250)&quot;&gt;&lt;font color=&quot;#ff0000&quot;&gt;&lt;i&gt;UTENTE,STRUMENTO,&lt;/i&gt;dataOrdine&lt;i&gt;,&lt;/i&gt;&lt;/font&gt;&lt;/u&gt;&lt;span style=&quot;color: rgb(0 , 0 , 0) ; font-family: &amp;quot;helvetica&amp;quot; ; font-size: 12px ; font-style: normal ; font-weight: 400 ; letter-spacing: normal ; text-align: center ; text-indent: 0px ; text-transform: none ; word-spacing: 0px ; background-color: rgb(248 , 249 , 250) ; display: inline ; float: none&quot;&gt;totaleOrdine,sconto,quantita) &lt;span style=&quot;white-space: pre&quot;&gt;&#9;&lt;/span&gt;VIR UTENTE(CF)&lt;br&gt;&lt;span style=&quot;white-space: pre&quot;&gt;&#9;&lt;/span&gt;VIR STRUMENTO(IDStrumento)&lt;br&gt;&lt;/span&gt;" style="text;whiteSpace=wrap;html=1;fontColor=#FF0000;" parent="1" vertex="1"><mxGeometry x="30" y="680" width="420" height="60.95" as="geometry"/></mxCell><mxCell id="2" value="" style="endArrow=none;html=1;rounded=0;exitX=0.25;exitY=0;exitDx=0;exitDy=0;" parent="1" edge="1"><mxGeometry width="50" height="50" relative="1" as="geometry"><mxPoint x="375.5" y="126.5" as="sourcePoint"/><mxPoint x="376" y="106.5" as="targetPoint"/></mxGeometry></mxCell><mxCell id="3" value="" style="ellipse;whiteSpace=wrap;html=1;aspect=fixed;" parent="1" vertex="1"><mxGeometry x="370.5" y="103.5" width="10" height="10" as="geometry"/></mxCell><mxCell id="4" value="dataOrdinePassato" style="text;html=1;strokeColor=none;fillColor=none;align=center;verticalAlign=middle;whiteSpace=wrap;rounded=0;" parent="1" vertex="1"><mxGeometry x="326.5" y="89" width="105.5" height="10" as="geometry"/></mxCell><mxCell id="5" value="" style="endArrow=none;html=1;rounded=0;" parent="1" edge="1"><mxGeometry width="50" height="50" relative="1" as="geometry"><mxPoint x="807.37" y="293.5" as="sourcePoint"/><mxPoint x="807.37" y="293.5" as="targetPoint"/></mxGeometry></mxCell><mxCell id="6" value="" style="endArrow=none;html=1;rounded=0;" parent="1" edge="1"><mxGeometry width="50" height="50" relative="1" as="geometry"><mxPoint x="809.87" y="293.5" as="sourcePoint"/><mxPoint x="809.87" y="293.5" as="targetPoint"/></mxGeometry></mxCell></root></mxGraphModel></diagram></mxfile>